<?xml version="1.0" encoding="utf-8"?>
<!-- Generator: Adobe Illustrator 17.0.0, SVG Export Plug-In . SVG Version: 6.00 Build 0)  -->
<!DOCTYPE svg PUBLIC "-//W3C//DTD SVG 1.1//EN" "http://www.w3.org/Graphics/SVG/1.1/DTD/svg11.dtd">
<svg version="1.1" id="Layer_1" xmlns="http://www.w3.org/2000/svg" xmlns:xlink="http://www.w3.org/1999/xlink" x="0px" y="0px"
	 width="1400px" height="1400px" viewBox="0 0 1400 1400" enable-background="new 0 0 1400 1400" xml:space="preserve">
<linearGradient id="SVGID_1_" gradientUnits="userSpaceOnUse" x1="700" y1="1400" x2="700" y2="-3.142668e-008">
	<stop  offset="0" style="stop-color:#157D71"/>
	<stop  offset="1" style="stop-color:#031430"/>
</linearGradient>
<rect fill-rule="evenodd" clip-rule="evenodd" fill="url(#SVGID_1_)" width="1400" height="1400"/>
<g>
	<path fill-rule="evenodd" clip-rule="evenodd" fill="#1B7D78" d="M995.4,1114c-18.7-19.3-83-28.3-91.9-25.9
		c-4.4-2.8-10.6-5.6-17.9-4.9c-9.2-5.4-19.9-5.4-27.1-3.6c-14.6-11.3-43.3-14.4-49.9-12.7c-8.4-4.5-17.6-6.6-27.6-5.3
		c-11.3-1.9-22.9-2.6-34.9-1c-31.7-8-92.7-18.5-153.8-24c128.1,20.4,363.3,72,530.9,104.7C1061.2,1125.3,1007.5,1115.2,995.4,1114
		L995.4,1114z"/>
	<path fill-rule="evenodd" clip-rule="evenodd" fill="#1B7D78" d="M1400,491.5c-21.8-6.2-44-7.4-66.7-1.2
		c-11.3-7.1-25.7-10.6-44.5-8.6c-16.6-3.7-33.6-4.6-51.8,0c-16.9-7.9-33.8-8.1-50.6-3.7c-21.5-11.7-44.8-16.8-70.4-13.6
		c-28.9-4.9-58.3-6.7-88.9-2.5c-29.6-5.6-60-8-91.4-6.2l286.4,45.7c-50.6-7-100-12.4-148.2-16.1l326,64.2V491.5z"/>
	<path fill-rule="evenodd" clip-rule="evenodd" fill="#1B7D78" d="M332.4,263.8c-13.8-19.4-49.5-30.1-72-23.3
		c-11.6-6.8-27.3-13.5-46-11.1c0.2-7.1-7.6-18.5-25.7-13.5c-17.1-7.5-34-7.2-50.7-2.3c-21.8-11-45.2-15.5-70.7-11.6
		c-22.1-3.1-44.5-4.4-67.3-2.6v13.8l174.5,22.9c-50.7-5.5-100.3-9.6-148.5-11.9l400.2,66.7C399,274.6,363.5,266,332.4,263.8
		L332.4,263.8z"/>
	<path fill-rule="evenodd" clip-rule="evenodd" fill="#1B7D78" d="M964.6,507.5c-8-12-29.6-19.2-43.4-15.4
		c-6.9-4.3-16.4-8.7-27.8-7.5c0.2-4.3-4.3-11.4-15.4-8.6c-10.3-4.8-20.6-4.9-30.9-2.3c-13.1-7.1-27.3-10.2-42.9-8.3
		c-17.6-2.9-35.6-4.1-54.2-1.5c-18.1-3.4-36.6-4.9-55.7-3.8L868.9,488c-30.8-4.2-61-7.6-90.3-9.8l242.7,47.4
		C1005,515.2,983.5,509.4,964.6,507.5L964.6,507.5z"/>
	<path fill-rule="evenodd" clip-rule="evenodd" fill="#1B7D78" d="M313.5,629c-29-30-128.9-44-142.7-40.3
		c-6.9-4.3-16.4-8.7-27.8-7.5c-14.2-8.3-30.9-8.3-42-5.6c-22.6-17.5-67.2-22.3-77.5-19.6C16,552,8.2,549.2,0,548v17.4
		c153.2,29.4,308.8,66.5,511.9,106.2C415.8,646.4,332.4,630.8,313.5,629L313.5,629z"/>
	<path fill-rule="evenodd" clip-rule="evenodd" fill="#1B7D78" d="M670.1,729.6c-18.7-19.3-83-28.3-91.9-25.9
		c-4.5-2.8-10.6-5.6-18-4.9c-9.2-5.4-19.9-5.4-27-3.6c-14.6-11.3-43.3-14.4-49.9-12.7c-8.4-4.6-17.6-6.6-27.6-5.3
		c-11.3-1.9-22.9-2.6-34.9-1c-31.7-8.1-92.7-18.6-153.8-24c128.1,20.4,363.3,72,530.8,104.7C736,740.8,682.3,730.8,670.1,729.6
		L670.1,729.6z"/>
</g>
<g>
	<path fill-rule="evenodd" clip-rule="evenodd" fill="#1B7D78" d="M1400,1148.9V1400H0v-290.3c179.6-21.3,371-32.9,569.8-32.9
		C868.3,1076.9,1150.2,1102.8,1400,1148.9L1400,1148.9z"/>
	<linearGradient id="SVGID_2_" gradientUnits="userSpaceOnUse" x1="700" y1="1000.3422" x2="700" y2="1500.0076">
		<stop  offset="0" style="stop-color:#157D71"/>
		<stop  offset="1" style="stop-color:#031430"/>
	</linearGradient>
	<path fill-rule="evenodd" clip-rule="evenodd" fill="url(#SVGID_2_)" d="M1400,1192.2V1400H0v-69.7
		c79.9-14.2,160.2-26.5,240.6-37.4c-77.8-5-157.8,0.2-240.6,18.6v-160.1c170.3-15.3,348.3-23.3,531.4-23.3
		c-115.7,11.1-378.5,41.7-478.7,70.5C681.8,1109.7,1136.4,1151.8,1400,1192.2L1400,1192.2z M347.7,1224.1
		c191.8-20.6,383.6-25.9,575.4-23.5c-113.4-24.4-234.8-27.1-368,1.2C480.7,1198.5,410.7,1204.3,347.7,1224.1L347.7,1224.1z"/>
	<path fill-rule="evenodd" clip-rule="evenodd" fill="#072E40" d="M1400,1274.5V1400H61.8c126.7-49.2,312.8-92.2,524.1-104.6
		C797.1,1283.1,912.9,1205.7,1400,1274.5L1400,1274.5z"/>
	<path fill-rule="evenodd" clip-rule="evenodd" fill="#07283D" d="M1400,1153.2v73c-27.8,6.9-53.4,17.6-77.3,31.5
		c-56.6-12.3-134.8-23.9-243.2-34.5c16-0.8,32.1-1.7,48.2-2.5c-63.9-13.3-120.5-21.3-170.4-24.7c48.2-4.6,96.7-6.1,145.7-2.4
		c22.4-17,48.3-26.6,80.3-23.4c-9.7-3-20.7-4-34.6,0c-21-6.8-44.8-12.6-77.8-14.8c49-14.1,100.8-17.9,155.6-9.9
		C1281.2,1135.5,1338.8,1136.9,1400,1153.2L1400,1153.2z M1400,1230.1V1400H632.9c69.1-20.4,141.9-36,224.3-38.6
		c13.2-18,32.8-28.5,59.3-30.9c15.9-16.2,35.6-20.9,60.5-9.9c64.5-14.4,116.6-1.2,163,24.7c37.1-33.1,84.4-41.8,139.5-32.1
		C1308.1,1271.1,1348.9,1244.2,1400,1230.1L1400,1230.1z M315.2,1400H0v-48.9c27.8,7.2,55.5,17.5,83.1,31.3
		C161.2,1381.8,238.6,1388,315.2,1400L315.2,1400z M0,1289.2v-110.7c34.6,2.2,75.2,12.5,109,43.4c47.2-6.6,77.1,0,96.3,14.8
		c17.4-4.3,37.3-4,58-2.5C164.5,1246.7,77.3,1265.3,0,1289.2L0,1289.2z M0,1175.6v-45c70.5-15.6,134-10.4,190.5,15.9
		c52-15.2,91.2-4.6,128.4,9.9c53-5.3,98.1-5.8,134.6-1.3c-140,7.9-245,14.9-386.6,32.7C45.7,1179.3,22.2,1175.9,0,1175.6L0,1175.6z"
		/>
</g>
<g>
	<path fill-rule="evenodd" clip-rule="evenodd" fill="#153347" d="M624.4,234.4c23.2,0,42,18.8,42,42c0,23.2-18.8,42-42,42
		c-23.2,0-42-18.8-42-42C582.5,253.2,601.3,234.4,624.4,234.4L624.4,234.4z"/>
	<path fill-rule="evenodd" clip-rule="evenodd" fill="#244153" d="M624.4,249.8c14.7,0,26.6,11.9,26.6,26.6
		c0,14.7-11.9,26.6-26.6,26.6c-14.7,0-26.6-11.9-26.6-26.6C597.9,261.7,609.8,249.8,624.4,249.8L624.4,249.8z"/>
	<path fill-rule="evenodd" clip-rule="evenodd" fill="#355061" d="M624.4,259.6c9.3,0,16.8,7.6,16.8,16.9c0,9.3-7.5,16.8-16.8,16.8
		c-9.3,0-16.8-7.6-16.8-16.8C607.6,267.1,615.1,259.6,624.4,259.6L624.4,259.6z"/>
	<path fill-rule="evenodd" clip-rule="evenodd" fill="#FFFFFF" d="M624.4,265.8c5.9,0,10.7,4.8,10.7,10.7c0,5.9-4.8,10.6-10.7,10.6
		c-5.9,0-10.7-4.8-10.7-10.6C613.8,270.5,618.6,265.8,624.4,265.8L624.4,265.8z"/>
</g>
<g>
	<path fill-rule="evenodd" clip-rule="evenodd" fill="#184753" d="M1086.5,544.4c10.6,0,19.1,8.5,19.1,19.1
		c0,10.6-8.5,19.1-19.1,19.1c-10.6,0-19.1-8.6-19.1-19.1C1067.4,552.9,1075.9,544.4,1086.5,544.4L1086.5,544.4z"/>
	<path fill-rule="evenodd" clip-rule="evenodd" fill="#27545E" d="M1086.5,551.4c6.7,0,12.1,5.4,12.1,12.1c0,6.7-5.4,12.1-12.1,12.1
		c-6.7,0-12.1-5.4-12.1-12.1C1074.4,556.8,1079.8,551.4,1086.5,551.4L1086.5,551.4z"/>
	<path fill-rule="evenodd" clip-rule="evenodd" fill="#38616C" d="M1086.5,555.8c4.2,0,7.7,3.4,7.7,7.7c0,4.2-3.4,7.7-7.7,7.7
		s-7.7-3.4-7.7-7.7C1078.8,559.2,1082.3,555.8,1086.5,555.8L1086.5,555.8z"/>
	<path fill-rule="evenodd" clip-rule="evenodd" fill="#FFFFFF" d="M1086.5,558.6c2.7,0,4.9,2.2,4.9,4.9c0,2.7-2.2,4.9-4.9,4.9
		c-2.7,0-4.9-2.2-4.9-4.9C1081.6,560.8,1083.8,558.6,1086.5,558.6L1086.5,558.6z"/>
</g>
<g>
	<path fill-rule="evenodd" clip-rule="evenodd" fill="#FFFFFF" d="M220.1,822.5c2.7,0,4.9,2.2,4.9,4.9c0,2.7-2.2,4.9-4.9,4.9
		c-2.7,0-4.8-2.2-4.8-4.9C215.3,824.6,217.5,822.5,220.1,822.5L220.1,822.5z"/>
	<path fill-rule="evenodd" clip-rule="evenodd" fill="#FFFFFF" d="M258.3,430.4c2.7,0,4.9,2.2,4.9,4.9c0,2.7-2.2,4.9-4.9,4.9
		c-2.7,0-4.9-2.2-4.9-4.9C253.5,432.6,255.6,430.4,258.3,430.4L258.3,430.4z"/>
	<path fill-rule="evenodd" clip-rule="evenodd" fill="#FFFFFF" d="M860.6,916.7c2.7,0,4.9,2.2,4.9,4.9c0,2.7-2.2,4.9-4.9,4.9
		c-2.7,0-4.9-2.2-4.9-4.9C855.7,918.9,857.9,916.7,860.6,916.7L860.6,916.7z"/>
	<path fill-rule="evenodd" clip-rule="evenodd" fill="#FFFFFF" d="M1110,173.4c2.7,0,4.9,2.2,4.9,4.9c0,2.7-2.2,4.9-4.9,4.9
		c-2.7,0-4.9-2.2-4.9-4.9C1105.2,175.6,1107.3,173.4,1110,173.4L1110,173.4z"/>
	<path fill-rule="evenodd" clip-rule="evenodd" fill="#FFFFFF" d="M107.4,54.8c2.7,0,4.9,2.2,4.9,4.9c0,2.7-2.2,4.9-4.9,4.9
		c-2.7,0-4.9-2.2-4.9-4.9C102.6,57,104.7,54.8,107.4,54.8L107.4,54.8z"/>
	<path fill-rule="evenodd" clip-rule="evenodd" fill="#FFFFFF" d="M1228.5,736.4c2.7,0,4.9,2.2,4.9,4.9c0,2.7-2.2,4.9-4.9,4.9
		c-2.7,0-4.9-2.2-4.9-4.9C1223.7,738.6,1225.9,736.4,1228.5,736.4L1228.5,736.4z"/>
	<path fill-rule="evenodd" clip-rule="evenodd" fill="#FFFFFF" d="M779.1,304.3c2.7,0,4.9,2.2,4.9,4.9c0,2.7-2.2,4.9-4.9,4.9
		c-2.7,0-4.9-2.2-4.9-4.9C774.2,306.4,776.4,304.3,779.1,304.3L779.1,304.3z"/>
</g>
<g>
	<path fill-rule="evenodd" clip-rule="evenodd" fill="#FFFF99" d="M790.8,253.9c1.5,0,2.8,1.3,2.8,2.8s-1.3,2.8-2.8,2.8
		c-1.5,0-2.8-1.2-2.8-2.8S789.3,253.9,790.8,253.9L790.8,253.9z"/>
	<path fill-rule="evenodd" clip-rule="evenodd" fill="#FFFF99" d="M716,295.3c1.5,0,2.8,1.3,2.8,2.8s-1.2,2.8-2.8,2.8
		c-1.5,0-2.8-1.2-2.8-2.8S714.5,295.3,716,295.3L716,295.3z"/>
	<path fill-rule="evenodd" clip-rule="evenodd" fill="#FFFF99" d="M822.2,341c3.2,0,5.8,2.6,5.8,5.8c0,3.3-2.6,5.9-5.8,5.9
		c-3.3,0-5.9-2.6-5.9-5.9C816.3,343.6,818.9,341,822.2,341L822.2,341z"/>
	<path fill-rule="evenodd" clip-rule="evenodd" fill="#FFFF99" d="M1058.9,94.4c3.3,0,5.9,2.6,5.9,5.8c0,3.3-2.6,5.9-5.9,5.9
		s-5.9-2.6-5.9-5.9C1053,97,1055.7,94.4,1058.9,94.4L1058.9,94.4z"/>
	<path fill-rule="evenodd" clip-rule="evenodd" fill="#FFFF99" d="M1194.8,151.2c3.2,0,5.8,2.6,5.8,5.8c0,3.3-2.6,5.9-5.8,5.9
		c-3.3,0-5.9-2.6-5.9-5.9C1188.9,153.8,1191.5,151.2,1194.8,151.2L1194.8,151.2z"/>
	<path fill-rule="evenodd" clip-rule="evenodd" fill="#FFFF99" d="M609.3,430.4c3.2,0,5.8,2.6,5.8,5.9c0,3.2-2.6,5.9-5.8,5.9
		c-3.3,0-5.9-2.7-5.9-5.9C603.5,433.1,606.1,430.4,609.3,430.4L609.3,430.4z"/>
	<path fill-rule="evenodd" clip-rule="evenodd" fill="#FFFF99" d="M294.3,599.1c3.3,0,5.9,2.6,5.9,5.8c0,3.3-2.6,5.9-5.9,5.9
		c-3.2,0-5.8-2.6-5.8-5.9C288.5,601.7,291.1,599.1,294.3,599.1L294.3,599.1z"/>
	<path fill-rule="evenodd" clip-rule="evenodd" fill="#FFFF99" d="M427.7,739.8c3.3,0,5.9,2.6,5.9,5.9s-2.6,5.9-5.9,5.9
		c-3.2,0-5.8-2.6-5.8-5.9S424.4,739.8,427.7,739.8L427.7,739.8z"/>
	<path fill-rule="evenodd" clip-rule="evenodd" fill="#FFFF99" d="M324,883c3.2,0,5.9,2.6,5.9,5.8c0,3.3-2.7,5.9-5.9,5.9
		c-3.3,0-5.9-2.6-5.9-5.9C318.1,885.7,320.7,883,324,883L324,883z"/>
	<path fill-rule="evenodd" clip-rule="evenodd" fill="#FFFF99" d="M84.3,768.7c3.2,0,5.8,2.6,5.8,5.9c0,3.2-2.6,5.8-5.8,5.8
		c-3.3,0-5.9-2.6-5.9-5.8C78.5,771.3,81.1,768.7,84.3,768.7L84.3,768.7z"/>
	<path fill-rule="evenodd" clip-rule="evenodd" fill="#FFFF99" d="M303.3,166.1c1.4,0,2.6,1.2,2.6,2.6s-1.2,2.6-2.6,2.6
		s-2.6-1.2-2.6-2.6S301.9,166.1,303.3,166.1L303.3,166.1z"/>
	<path fill-rule="evenodd" clip-rule="evenodd" fill="#FFFF99" d="M122.1,104.9c1.4,0,2.6,1.2,2.6,2.6c0,1.4-1.2,2.6-2.6,2.6
		c-1.4,0-2.6-1.2-2.6-2.6C119.5,106.1,120.7,104.9,122.1,104.9L122.1,104.9z"/>
	<path fill-rule="evenodd" clip-rule="evenodd" fill="#FFFF99" d="M104.8,376.6c1.4,0,2.6,1.2,2.6,2.6s-1.2,2.6-2.6,2.6
		c-1.4,0-2.6-1.2-2.6-2.6S103.4,376.6,104.8,376.6L104.8,376.6z"/>
	<path fill-rule="evenodd" clip-rule="evenodd" fill="#FFFF99" d="M474,558.1c1.4,0,2.6,1.1,2.6,2.6c0,1.4-1.2,2.5-2.6,2.5
		c-1.4,0-2.6-1.1-2.6-2.5C471.4,559.2,472.6,558.1,474,558.1L474,558.1z"/>
	<path fill-rule="evenodd" clip-rule="evenodd" fill="#FFFF99" d="M574,175.3c1.4,0,2.5,1.1,2.5,2.6c0,1.4-1.1,2.5-2.5,2.5
		c-1.4,0-2.6-1.1-2.6-2.5C571.4,176.4,572.6,175.3,574,175.3L574,175.3z"/>
	<path fill-rule="evenodd" clip-rule="evenodd" fill="#FFFF99" d="M1146.9,723.5c1.4,0,2.5,1.2,2.5,2.6c0,1.4-1.1,2.6-2.5,2.6
		c-1.4,0-2.6-1.2-2.6-2.6C1144.4,724.7,1145.5,723.5,1146.9,723.5L1146.9,723.5z"/>
	<path fill-rule="evenodd" clip-rule="evenodd" fill="#FFFF99" d="M1267.9,977.9c1.4,0,2.6,1.2,2.6,2.6c0,1.4-1.2,2.6-2.6,2.6
		c-1.4,0-2.6-1.2-2.6-2.6C1265.4,979,1266.5,977.9,1267.9,977.9L1267.9,977.9z"/>
</g>
<g>
	<path fill-rule="evenodd" clip-rule="evenodd" fill="#CCFF66" d="M895,977.8c1.4,0,2.6,1.2,2.6,2.6c0,1.4-1.2,2.6-2.6,2.6
		s-2.6-1.2-2.6-2.6C892.5,979,893.6,977.8,895,977.8L895,977.8z"/>
	<path fill-rule="evenodd" clip-rule="evenodd" fill="#CCFF66" d="M517.8,749.5c1.4,0,2.5,1.2,2.5,2.6c0,1.4-1.1,2.6-2.5,2.6
		c-1.4,0-2.6-1.2-2.6-2.6C515.3,750.6,516.4,749.5,517.8,749.5L517.8,749.5z"/>
	<path fill-rule="evenodd" clip-rule="evenodd" fill="#CCFF66" d="M814.1,581.5c1.4,0,2.6,1.2,2.6,2.6s-1.2,2.6-2.6,2.6
		s-2.6-1.2-2.6-2.6S812.7,581.5,814.1,581.5L814.1,581.5z"/>
	<path fill-rule="evenodd" clip-rule="evenodd" fill="#CCFF66" d="M1215.4,545.7c1.4,0,2.6,1.2,2.6,2.6c0,1.4-1.1,2.6-2.6,2.6
		c-1.4,0-2.5-1.2-2.5-2.6C1212.9,546.9,1214,545.7,1215.4,545.7L1215.4,545.7z"/>
	<path fill-rule="evenodd" clip-rule="evenodd" fill="#CCFF66" d="M207.9,439.5c1.4,0,2.6,1.2,2.6,2.6s-1.2,2.6-2.6,2.6
		s-2.6-1.2-2.6-2.6S206.5,439.5,207.9,439.5L207.9,439.5z"/>
	<path fill-rule="evenodd" clip-rule="evenodd" fill="#CCFF66" d="M120.2,615c0.7,0,1.3,0.6,1.3,1.3s-0.6,1.3-1.3,1.3
		c-0.7,0-1.3-0.6-1.3-1.3S119.5,615,120.2,615L120.2,615z"/>
	<path fill-rule="evenodd" clip-rule="evenodd" fill="#CCFF66" d="M173.8,268.3c0.7,0,1.3,0.6,1.3,1.3c0,0.7-0.6,1.3-1.3,1.3
		c-0.7,0-1.3-0.6-1.3-1.3C172.5,268.8,173.1,268.3,173.8,268.3L173.8,268.3z"/>
	<path fill-rule="evenodd" clip-rule="evenodd" fill="#CCFF66" d="M465.2,294.2c0.7,0,1.3,0.6,1.3,1.3c0,0.7-0.6,1.3-1.3,1.3
		c-0.7,0-1.3-0.6-1.3-1.3C464,294.8,464.5,294.2,465.2,294.2L465.2,294.2z"/>
	<path fill-rule="evenodd" clip-rule="evenodd" fill="#CCFF66" d="M871.4,131.2c0.7,0,1.3,0.6,1.3,1.3c0,0.7-0.6,1.3-1.3,1.3
		c-0.7,0-1.3-0.6-1.3-1.3C870.2,131.8,870.7,131.2,871.4,131.2L871.4,131.2z"/>
	<path fill-rule="evenodd" clip-rule="evenodd" fill="#CCFF66" d="M818.3,293c0.7,0,1.3,0.6,1.3,1.3c0,0.7-0.6,1.3-1.3,1.3
		c-0.7,0-1.3-0.6-1.3-1.3C817,293.6,817.6,293,818.3,293L818.3,293z"/>
	<path fill-rule="evenodd" clip-rule="evenodd" fill="#CCFF66" d="M870.2,318.9c0.7,0,1.3,0.6,1.3,1.3c0,0.7-0.6,1.3-1.3,1.3
		s-1.3-0.6-1.3-1.3C868.9,319.5,869.5,318.9,870.2,318.9L870.2,318.9z"/>
	<path fill-rule="evenodd" clip-rule="evenodd" fill="#CCFF66" d="M833.1,422.6c0.7,0,1.3,0.6,1.3,1.3c0,0.7-0.6,1.3-1.3,1.3
		s-1.3-0.6-1.3-1.3C831.8,423.2,832.4,422.6,833.1,422.6L833.1,422.6z"/>
	<path fill-rule="evenodd" clip-rule="evenodd" fill="#CCFF66" d="M1073.9,530.1c0.7,0,1.3,0.6,1.3,1.3s-0.6,1.3-1.3,1.3
		c-0.7,0-1.3-0.6-1.3-1.3S1073.2,530.1,1073.9,530.1L1073.9,530.1z"/>
	<path fill-rule="evenodd" clip-rule="evenodd" fill="#CCFF66" d="M1196.1,226.3c0.7,0,1.3,0.6,1.3,1.3s-0.6,1.3-1.3,1.3
		s-1.3-0.6-1.3-1.3S1195.4,226.3,1196.1,226.3L1196.1,226.3z"/>
	<path fill-rule="evenodd" clip-rule="evenodd" fill="#CCFF66" d="M1266.5,118.9c0.7,0,1.3,0.6,1.3,1.3c0,0.7-0.6,1.3-1.3,1.3
		c-0.7,0-1.3-0.6-1.3-1.3C1265.2,119.5,1265.8,118.9,1266.5,118.9L1266.5,118.9z"/>
	<path fill-rule="evenodd" clip-rule="evenodd" fill="#CCFF66" d="M1364.1,185.6c0.7,0,1.3,0.6,1.3,1.3c0,0.7-0.6,1.3-1.3,1.3
		c-0.7,0-1.3-0.6-1.3-1.3C1362.8,186.1,1363.4,185.6,1364.1,185.6L1364.1,185.6z"/>
	<path fill-rule="evenodd" clip-rule="evenodd" fill="#CCFF66" d="M1004.7,299.2c0.7,0,1.3,0.6,1.3,1.3c0,0.7-0.6,1.3-1.3,1.3
		s-1.3-0.6-1.3-1.3C1003.5,299.7,1004,299.2,1004.7,299.2L1004.7,299.2z"/>
</g>
<g>
	<path fill-rule="evenodd" clip-rule="evenodd" fill="#33CC99" d="M1047,733.8c2.2,0,4,1.8,4,4.1c0,2.2-1.8,4-4,4c-2.2,0-4-1.8-4-4
		C1043,735.6,1044.8,733.8,1047,733.8L1047,733.8z"/>
	<path fill-rule="evenodd" clip-rule="evenodd" fill="#33CC99" d="M1228.3,706c2.2,0,4,1.8,4,4c0,2.2-1.8,4.1-4,4.1
		c-2.2,0-4.1-1.8-4.1-4.1C1224.2,707.8,1226,706,1228.3,706L1228.3,706z"/>
	<path fill-rule="evenodd" clip-rule="evenodd" fill="#33CC99" d="M1308.5,806c2.2,0,4,1.8,4,4c0,2.2-1.8,4-4,4
		c-2.2,0-4.1-1.8-4.1-4C1304.4,807.8,1306.3,806,1308.5,806L1308.5,806z"/>
	<path fill-rule="evenodd" clip-rule="evenodd" fill="#33CC99" d="M910.9,950.5c2.2,0,4,1.8,4,4c0,2.2-1.8,4.1-4,4.1s-4-1.8-4-4.1
		C906.9,952.3,908.7,950.5,910.9,950.5L910.9,950.5z"/>
	<path fill-rule="evenodd" clip-rule="evenodd" fill="#33CC99" d="M544.2,965.3c2.2,0,4,1.8,4,4.1c0,2.2-1.8,4-4,4
		c-2.2,0-4.1-1.8-4.1-4C540.2,967.1,542,965.3,544.2,965.3L544.2,965.3z"/>
	<path fill-rule="evenodd" clip-rule="evenodd" fill="#33CC99" d="M170.1,918.4c2.2,0,4.1,1.8,4.1,4s-1.8,4-4.1,4c-2.2,0-4-1.8-4-4
		S167.9,918.4,170.1,918.4L170.1,918.4z"/>
	<path fill-rule="evenodd" clip-rule="evenodd" fill="#33CC99" d="M82.5,955.4c2.2,0,4,1.8,4,4.1c0,2.2-1.8,4-4,4c-2.2,0-4-1.8-4-4
		C78.5,957.3,80.3,955.4,82.5,955.4L82.5,955.4z"/>
	<path fill-rule="evenodd" clip-rule="evenodd" fill="#33CC99" d="M238,643c2.2,0,4,1.8,4,4c0,2.2-1.8,4-4,4c-2.2,0-4.1-1.8-4.1-4
		C233.9,644.8,235.8,643,238,643L238,643z"/>
	<path fill-rule="evenodd" clip-rule="evenodd" fill="#33CC99" d="M191.1,181.2c2.2,0,4,1.8,4,4c0,2.2-1.8,4-4,4c-2.2,0-4-1.8-4-4
		C187,183.1,188.8,181.2,191.1,181.2L191.1,181.2z"/>
	<path fill-rule="evenodd" clip-rule="evenodd" fill="#33CC99" d="M249.4,80.4c2.2,0,4,1.8,4,4.1c0,2.2-1.8,4-4,4c-2.2,0-4-1.8-4-4
		C245.4,82.3,247.2,80.4,249.4,80.4L249.4,80.4z"/>
	<path fill-rule="evenodd" clip-rule="evenodd" fill="#33CC99" d="M1220.8,945.2c2.2,0,4,1.8,4,4c0,2.2-1.8,4-4,4c-2.2,0-4-1.8-4-4
		C1216.8,947,1218.6,945.2,1220.8,945.2L1220.8,945.2z"/>
	<path fill-rule="evenodd" clip-rule="evenodd" fill="#33CC99" d="M682.5,540.2c2.2,0,4,1.8,4,4.1c0,2.2-1.8,4-4,4
		c-2.2,0-4.1-1.8-4.1-4C678.4,542,680.3,540.2,682.5,540.2L682.5,540.2z"/>
	<path fill-rule="evenodd" clip-rule="evenodd" fill="#33CC99" d="M625.7,520.5c2.2,0,4,1.8,4,4c0,2.2-1.8,4-4,4s-4-1.8-4-4
		C621.7,522.3,623.5,520.5,625.7,520.5L625.7,520.5z"/>
	<path fill-rule="evenodd" clip-rule="evenodd" fill="#33CC99" d="M692.8,364.9c1.1,0,2,0.9,2,2c0,1.1-0.9,2-2,2c-1.1,0-2-0.9-2-2
		C690.8,365.8,691.7,364.9,692.8,364.9L692.8,364.9z"/>
	<path fill-rule="evenodd" clip-rule="evenodd" fill="#33CC99" d="M684.9,256.4c1.1,0,2,0.9,2,2c0,1.1-0.9,2-2,2s-2-0.9-2-2
		C683,257.3,683.8,256.4,684.9,256.4L684.9,256.4z"/>
	<path fill-rule="evenodd" clip-rule="evenodd" fill="#33CC99" d="M501,358.9c1.1,0,2,0.9,2,2c0,1.1-0.9,2-2,2c-1.1,0-2-0.9-2-2
		C499,359.8,499.9,358.9,501,358.9L501,358.9z"/>
	<path fill-rule="evenodd" clip-rule="evenodd" fill="#33CC99" d="M230.6,286.1c1.1,0,2,0.9,2,2c0,1.1-0.9,2-2,2c-1.1,0-2-0.9-2-2
		C228.6,287,229.5,286.1,230.6,286.1L230.6,286.1z"/>
	<path fill-rule="evenodd" clip-rule="evenodd" fill="#33CC99" d="M61.4,345.3c1.1,0,2,0.9,2,2c0,1.1-0.9,2-2,2c-1.1,0-2-0.9-2-2
		C59.4,346.2,60.3,345.3,61.4,345.3L61.4,345.3z"/>
	<path fill-rule="evenodd" clip-rule="evenodd" fill="#33CC99" d="M118.2,420.6c1.1,0,2,0.9,2,2c0,1.1-0.9,2-2,2s-2-0.9-2-2
		C116.2,421.5,117.1,420.6,118.2,420.6L118.2,420.6z"/>
	<path fill-rule="evenodd" clip-rule="evenodd" fill="#33CC99" d="M833.1,86c1.1,0,2,0.9,2,2c0,1.1-0.9,2-2,2c-1.1,0-2-0.9-2-2
		C831.1,86.9,832,86,833.1,86L833.1,86z"/>
	<path fill-rule="evenodd" clip-rule="evenodd" fill="#33CC99" d="M1290,408.3c1.1,0,2,0.9,2,2c0,1.1-0.9,2-2,2c-1.1,0-2-0.9-2-2
		C1288,409.2,1288.9,408.3,1290,408.3L1290,408.3z"/>
	<path fill-rule="evenodd" clip-rule="evenodd" fill="#33CC99" d="M935.6,698.5c1.1,0,2,0.9,2,2c0,1.1-0.9,2-2,2c-1.1,0-2-0.9-2-2
		C933.6,699.3,934.5,698.5,935.6,698.5L935.6,698.5z"/>
</g>
<g>
	<path fill-rule="evenodd" clip-rule="evenodd" fill="#FF9999" d="M485.6,88.5c2.9,0,5.2,2.3,5.2,5.2c0,2.9-2.3,5.2-5.2,5.2
		c-2.9,0-5.2-2.3-5.2-5.2C480.4,90.8,482.8,88.5,485.6,88.5L485.6,88.5z"/>
	<path fill-rule="evenodd" clip-rule="evenodd" fill="#FF9999" d="M290.8,485.2c2.9,0,5.2,2.3,5.2,5.2c0,2.9-2.3,5.2-5.2,5.2
		s-5.2-2.3-5.2-5.2C285.6,487.6,287.9,485.2,290.8,485.2L290.8,485.2z"/>
	<path fill-rule="evenodd" clip-rule="evenodd" fill="#FF9999" d="M1134.1,396.6c2.8,0,5.1,2.3,5.1,5.2c0,2.9-2.3,5.2-5.1,5.2
		c-2.9,0-5.2-2.3-5.2-5.2C1128.9,398.9,1131.2,396.6,1134.1,396.6L1134.1,396.6z"/>
	<path fill-rule="evenodd" clip-rule="evenodd" fill="#FF9999" d="M813,681.8c2.9,0,5.2,2.3,5.2,5.2c0,2.9-2.3,5.2-5.2,5.2
		c-2.8,0-5.1-2.3-5.1-5.2C807.9,684.1,810.2,681.8,813,681.8L813,681.8z"/>
	<path fill-rule="evenodd" clip-rule="evenodd" fill="#FF9999" d="M1103.2,1052c2.8,0,5.2,2.3,5.2,5.2c0,2.8-2.3,5.2-5.2,5.2
		c-2.9,0-5.2-2.3-5.2-5.2C1098.1,1054.3,1100.4,1052,1103.2,1052L1103.2,1052z"/>
	<path fill-rule="evenodd" clip-rule="evenodd" fill="#FF9999" d="M1279.8,579c2.9,0,5.2,2.3,5.2,5.2c0,2.9-2.3,5.2-5.2,5.2
		c-2.8,0-5.1-2.3-5.1-5.2C1274.6,581.4,1276.9,579,1279.8,579L1279.8,579z"/>
	<path fill-rule="evenodd" clip-rule="evenodd" fill="#FF9999" d="M443.4,766.4c2,0,3.5,1.6,3.5,3.5c0,2-1.5,3.5-3.5,3.5
		c-1.9,0-3.5-1.6-3.5-3.5C439.9,767.9,441.5,766.4,443.4,766.4L443.4,766.4z"/>
	<path fill-rule="evenodd" clip-rule="evenodd" fill="#FF9999" d="M226.7,550.2c1.9,0,3.5,1.6,3.5,3.5c0,2-1.6,3.5-3.5,3.5
		c-2,0-3.5-1.6-3.5-3.5C223.2,551.8,224.8,550.2,226.7,550.2L226.7,550.2z"/>
	<path fill-rule="evenodd" clip-rule="evenodd" fill="#FF9999" d="M89.7,658.8c1.9,0,3.5,1.6,3.5,3.5c0,1.9-1.6,3.5-3.5,3.5
		c-1.9,0-3.5-1.6-3.5-3.5C86.2,660.4,87.7,658.8,89.7,658.8L89.7,658.8z"/>
	<path fill-rule="evenodd" clip-rule="evenodd" fill="#FF9999" d="M182.3,783.5c1.9,0,3.5,1.6,3.5,3.5c0,1.9-1.6,3.5-3.5,3.5
		c-2,0-3.5-1.6-3.5-3.5C178.7,785.1,180.3,783.5,182.3,783.5L182.3,783.5z"/>
	<path fill-rule="evenodd" clip-rule="evenodd" fill="#FF9999" d="M202,845.3c2,0,3.5,1.6,3.5,3.5c0,1.9-1.6,3.5-3.5,3.5
		c-1.9,0-3.5-1.6-3.5-3.5C198.5,846.9,200.1,845.3,202,845.3L202,845.3z"/>
	<path fill-rule="evenodd" clip-rule="evenodd" fill="#FF9999" d="M166.2,883.6c2,0,3.5,1.6,3.5,3.5c0,2-1.6,3.5-3.5,3.5
		c-1.9,0-3.5-1.6-3.5-3.5C162.7,885.1,164.3,883.6,166.2,883.6L166.2,883.6z"/>
	<path fill-rule="evenodd" clip-rule="evenodd" fill="#FF9999" d="M1176.2,239.1c2,0,3.5,1.6,3.5,3.5c0,2-1.6,3.5-3.5,3.5
		c-1.9,0-3.5-1.6-3.5-3.5C1172.7,240.6,1174.3,239.1,1176.2,239.1L1176.2,239.1z"/>
	<path fill-rule="evenodd" clip-rule="evenodd" fill="#FF9999" d="M1154,34.1c2,0,3.5,1.6,3.5,3.5c0,2-1.6,3.5-3.5,3.5
		c-1.9,0-3.5-1.6-3.5-3.5C1150.5,35.7,1152.1,34.1,1154,34.1L1154,34.1z"/>
	<path fill-rule="evenodd" clip-rule="evenodd" fill="#FF9999" d="M1304.6,152.6c2,0,3.5,1.6,3.5,3.5c0,1.9-1.6,3.5-3.5,3.5
		c-1.9,0-3.5-1.6-3.5-3.5C1301.1,154.2,1302.7,152.6,1304.6,152.6L1304.6,152.6z"/>
</g>
<g>
	<path fill-rule="evenodd" clip-rule="evenodd" fill="#CC66FF" d="M1134.9,208.8c1.9,0,3.5,1.5,3.5,3.5c0,1.9-1.6,3.5-3.5,3.5
		c-2,0-3.5-1.6-3.5-3.5C1131.3,210.4,1132.9,208.8,1134.9,208.8L1134.9,208.8z"/>
	<path fill-rule="evenodd" clip-rule="evenodd" fill="#CC66FF" d="M332.3,510.4c3.3,0,6,2.7,6,6c0,3.3-2.7,6-6,6c-3.3,0-6-2.7-6-6
		C326.3,513.1,329,510.4,332.3,510.4L332.3,510.4z"/>
	<path fill-rule="evenodd" clip-rule="evenodd" fill="#CC66FF" d="M251.6,140.2c3.3,0,6,2.7,6,6c0,3.3-2.7,6-6,6c-3.3,0-6-2.7-6-6
		C245.6,142.9,248.3,140.2,251.6,140.2L251.6,140.2z"/>
	<path fill-rule="evenodd" clip-rule="evenodd" fill="#CC66FF" d="M466.4,58.7c3.3,0,6,2.7,6,6c0,3.3-2.7,6-6,6c-3.3,0-6-2.7-6-6
		C460.4,61.4,463.1,58.7,466.4,58.7L466.4,58.7z"/>
	<path fill-rule="evenodd" clip-rule="evenodd" fill="#CC66FF" d="M1180.1,794.6c3.3,0,6,2.7,6,6s-2.7,6-6,6c-3.3,0-6-2.7-6-6
		S1176.8,794.6,1180.1,794.6L1180.1,794.6z"/>
	<path fill-rule="evenodd" clip-rule="evenodd" fill="#CC66FF" d="M982.5,999.6c3.3,0,6,2.7,6,6s-2.7,6-6,6c-3.3,0-6-2.7-6-6
		S979.2,999.6,982.5,999.6L982.5,999.6z"/>
	<path fill-rule="evenodd" clip-rule="evenodd" fill="#CC66FF" d="M1360.3,1090.9c3.3,0,6,2.7,6,6c0,3.3-2.7,6-6,6c-3.3,0-6-2.7-6-6
		C1354.3,1093.6,1357,1090.9,1360.3,1090.9L1360.3,1090.9z"/>
	<path fill-rule="evenodd" clip-rule="evenodd" fill="#CC66FF" d="M115.7,1007c3.3,0,6,2.7,6,6c0,3.3-2.7,6-6,6c-3.3,0-6-2.7-6-6
		C109.7,1009.7,112.4,1007,115.7,1007L115.7,1007z"/>
	<path fill-rule="evenodd" clip-rule="evenodd" fill="#CC66FF" d="M26.8,646.4c3.3,0,6,2.7,6,6s-2.7,6-6,6s-6-2.7-6-6
		S23.5,646.4,26.8,646.4L26.8,646.4z"/>
	<path fill-rule="evenodd" clip-rule="evenodd" fill="#CC66FF" d="M194.3,363.5c1.6,0,3,1.4,3,3c0,1.7-1.4,3-3,3c-1.7,0-3-1.3-3-3
		C191.2,364.9,192.6,363.5,194.3,363.5L194.3,363.5z"/>
	<path fill-rule="evenodd" clip-rule="evenodd" fill="#CC66FF" d="M75.5,80.4c1.6,0,3,1.4,3,3c0,1.7-1.4,3-3,3c-1.7,0-3-1.3-3-3
		C72.4,81.8,73.8,80.4,75.5,80.4L75.5,80.4z"/>
	<path fill-rule="evenodd" clip-rule="evenodd" fill="#CC66FF" d="M1043.1,391.7c1.7,0,3,1.4,3,3c0,1.7-1.3,3-3,3c-1.6,0-3-1.3-3-3
		C1040.1,393.1,1041.5,391.7,1043.1,391.7L1043.1,391.7z"/>
	<path fill-rule="evenodd" clip-rule="evenodd" fill="#CC66FF" d="M775.5,780.4c1.6,0,3,1.4,3,3c0,1.7-1.4,3-3,3c-1.7,0-3-1.3-3-3
		C772.5,781.8,773.8,780.4,775.5,780.4L775.5,780.4z"/>
	<path fill-rule="evenodd" clip-rule="evenodd" fill="#CC66FF" d="M618.3,1011.5c1.7,0,3,1.3,3,3c0,1.6-1.3,3-3,3c-1.6,0-3-1.4-3-3
		C615.3,1012.9,616.7,1011.5,618.3,1011.5L618.3,1011.5z"/>
	<path fill-rule="evenodd" clip-rule="evenodd" fill="#CC66FF" d="M346.7,779.4c1.7,0,3,1.4,3,3c0,1.7-1.3,3-3,3c-1.6,0-3-1.3-3-3
		C343.7,780.7,345.1,779.4,346.7,779.4L346.7,779.4z"/>
	<path fill-rule="evenodd" clip-rule="evenodd" fill="#CC66FF" d="M751.7,107.7c1.7,0,3,1.4,3,3c0,1.7-1.3,3-3,3c-1.6,0-3-1.3-3-3
		C748.7,109.1,750,107.7,751.7,107.7L751.7,107.7z"/>
	<path fill-rule="evenodd" clip-rule="evenodd" fill="#CC66FF" d="M1131.5,774.4c1.6,0,3,1.4,3,3c0,1.7-1.4,3-3,3c-1.7,0-3-1.3-3-3
		C1128.5,775.8,1129.8,774.4,1131.5,774.4L1131.5,774.4z"/>
</g>
</svg>
